<?xml version="1.0" encoding="utf-8"?>
<svg version="1.1" xmlns="http://www.w3.org/2000/svg" x="0px" y="0px"
	 viewBox="0 0 300 112" enable-background="new 0 0 300 112" xml:space="preserve">
<g>
	<path fill="#EF4B74" d="M71.4,47.1c-1.7-0.3-3.5-0.6-5.3-0.4c-1.3,0.1-2.7,0.4-4,0.7c-0.7,0.1-1.3,0.3-2,0.5
		c-2.2,0.7-4.2,1.7-6,3.1c-0.4,0.3-0.4,0.3,0,0.7c2.5,1.8,4.8,3.9,7,6c0.7,0.6,1.2,1.3,1.9,1.9c1.3,1.1,2.1,2.6,3.2,3.9
		c-0.4-0.3-0.9-0.7-1.3-1c-0.5-0.3-1-0.6-1.5-0.9c-0.5-0.3-1-0.7-1.6-1c-1.5-0.7-3.1-1.5-4.7-2.1c-1.4-0.6-2.9-1.1-4.4-1.6
		c-0.9-0.3-1.8-0.5-2.8-0.8c-0.3-0.1-0.4,0.1-0.4,0.3c0,0.1,0,0.2,0,0.3c-0.1,1.3,0,2.7-0.2,4c-0.5,2.8-1.4,5.5-3.6,7.6
		c-1.1,1-2.3,1.7-3.7,2.2c-2.7,1-5.5,1.1-8.4,0.9c-1.4-0.1-2.8-0.3-4.1-0.5c-0.6-0.1-1.2-0.2-1.8-0.3c-0.2,0-0.5,0-0.7,0.1
		c-2,1.3-4,2.6-5.7,4.3c-1.3,1.2-2.3,2.6-2.8,4.3c-0.4,1.2-0.2,2.3,0.4,3.4c0.7,1.4,1.8,2.5,3.1,3.3c1.2,0.8,2.5,1.5,3.7,2.2
		c-0.6,0-1.1,0.1-1.7,0.1c-1.9,0-3.7,0-5.5-0.2c-2.6-0.3-5.1-1-7.5-2c-4.3-1.9-7.8-4.7-10.6-8.4c-0.1-0.1-0.2-0.2-0.3-0.3
		c-0.3-0.3-0.3-0.7-0.1-1.1c1.2-2.4,2.4-4.7,3.5-7.1c0.5-1.1,0.8-2.2,1.2-3.3c0-0.1,0.1-0.2,0.2-0.3c0.5,0.4,1,0.8,1.5,1.2
		c0.6,0.4,1.2,0.7,1.8,1.1c0.3,0.2,0.6,0.1,0.9-0.1c1.6-1.4,3.1-2.9,4.5-4.5c1-1.2,2-2.4,2.6-3.9c0.3-0.7,0.5-1.4,0.6-2.2
		c0-0.4-0.1-0.7-0.4-0.9C16,55.6,15.4,55,15,54.5c1.2-1.2,2.4-2.5,3.6-3.8c1.3-1.4,2.3-2.9,2.9-4.7c0.2-0.6,0.2-1.3,0.2-1.9
		c0-0.5,0.1-0.8,0.5-1.2c1.7-1.6,3.5-3.2,5.2-4.8c2-1.9,4.1-3.9,6.1-5.8c2.9-2.9,5.8-5.8,8.7-8.7c2.4-2.5,4.9-5,7.3-7.6
		c2.4-2.6,4.8-5.2,7.2-7.9C58.8,5.3,61,2.6,63.3,0c0,0,0,0,0,0c0,0,0,0,0,0.1c0,0.1,0,0.1-0.1,0.2c0,0.1-0.1,0.2-0.2,0.3
		c-2.9,4.4-5.8,8.8-8.7,13.1c-0.1,0.1-0.2,0.2-0.2,0.3c-4.3,6.6-13.2,22.2-12.8,22.3c0.6,0.1,1.2,0.3,1.7,0.5c2.9,0.8,5.8,1.2,8.8,1
		c2-0.1,3.9-0.6,5.8-1.3c2.8-1.1,5.1-2.8,7.1-5c0.6-0.7,1.2-1.4,1.8-2.2c-0.1,0.4-0.2,0.7-0.3,0.9c-1.2,2.2-2.3,4.4-3.8,6.4
		C60.9,39,59,41.2,57,43.1c-0.2,0.2-0.5,0.4-0.7,0.7c-0.1,0.1-0.1,0.2-0.1,0.2c0,0.1,0.1,0.2,0.2,0.2c0.6-0.1,1.2-0.1,1.7-0.2
		c1.2-0.3,2.4-0.2,3.6,0c0.7,0.1,1.4,0.2,2,0.3c2.1,0.4,4.2,1,6.1,2C70.3,46.6,70.9,46.8,71.4,47.1L71.4,47.1z M24.2,56.9
		c1.1,0.1,1.1,0.1,2.7-0.7c3.6-1.8,5.8-4.6,5.6-8.8c0-1-0.3-1.9-0.4-2.9c0-0.2-0.2-0.4-0.4-0.4c-0.1,0-0.3,0.2-0.4,0.4
		c-0.6,1.1-1.2,2.2-1.8,3.2C27.8,50.7,26,53.7,24.2,56.9z"/>
	<path fill="#EF4B74" d="M29.3,112c-0.1-0.2-0.2-0.3-0.3-0.5c-0.4-1.6-0.8-3.1-0.6-4.8c0.1-1,0.3-1.9,0.6-2.9
		c0.4-1.2,0.9-2.4,1.5-3.6c0.6-1.3,1.4-2.5,2.1-3.7c0.8-1.2,1.6-2.4,2.4-3.5c2.1-2.6,4.2-5.2,6.3-7.8c1.5-1.8,3.1-3.6,4.6-5.4
		c2.2-2.5,4.2-5.1,6-7.8c0.8-1.3,1.5-2.7,2-4.1c0.3-0.9,0.3-1.9,0.1-2.9c-0.2-1.2-1.1-2.1-2.3-2.7c-0.7-0.4-0.7-0.4-0.5-1
		c0.2-1,0.3-1.9,0.5-2.9c0.1,0,0.2,0,0.3,0c1.4,0.5,2.7,1,4.1,1.5c0.8,0.3,1.7,0.7,2.2,1.4c0.6,0.8,0.9,1.6,0.9,2.5
		c0,1,0,1.9-0.2,2.9c-0.2,1.1-0.7,2.1-1.1,3.2c-0.5,1.4-1.2,2.7-2,3.9c-0.9,1.5-1.9,3-2.9,4.4c-1.3,1.7-2.6,3.4-4,5
		c-1.4,1.6-2.9,3.1-4.3,4.7c-2.6,2.7-5.4,5.2-8.3,7.6c-2.1,1.8-4,3.7-5.4,6c-0.8,1.2-1.3,2.6-1.6,4c-0.3,1.1-0.4,2.2-0.4,3.3
		c0,0.9,0.1,1.7,0.4,2.6c0.1,0.2,0.1,0.4,0.1,0.6C29.3,112,29.3,112,29.3,112z"/>
	<path fill="#E5D4ED" d="M61.3,62.2c0.9,0.5,1.7,0.8,2.6,1.3c2,1.1,4,2.3,6.1,3.4c0.4,0.2,0.5,0.4,0.3,0.8c-0.7,1.1-1.3,2.2-2,3.2
		C66.7,73,65,75,63.2,77c-2.3,2.4-4.6,4.8-7.2,7c-2.3,2-4.6,4-7,5.9c-1.9,1.6-3.9,3-5.9,4.6c-0.3,0.2-0.6,0.5-1,0.7
		c0.1-0.1,0.1-0.2,0.2-0.3c2.3-2.5,4.8-5,7-7.5c1.7-1.9,3.2-4,4.8-6c1.2-1.6,2.3-3.3,3.4-5c0.8-1.3,1.4-2.6,2.1-3.9
		c0.7-1.3,1.1-2.8,1.6-4.2c0.1-0.3,0.1-0.6,0.2-1c0.1-0.7,0.2-1.4,0.3-2.1c0-0.4-0.1-0.7-0.1-1.1C61.4,63.5,61.3,62.9,61.3,62.2z"/>
	<path fill="#E5D4ED" d="M71.6,65.2c-4.4-5.3-9.3-9.9-15-13.8c1-0.4,1.8-0.9,2.8-1.2c1.2-0.4,2.5-0.8,3.7-1c1.5-0.3,2.9-0.5,4.4-0.4
		c0.4,0,0.7,0.2,1,0.4c0.9,1,1.8,2.1,2.4,3.3c0.5,1.1,0.9,2.2,1.3,3.3c0.2,0.5,0.2,1.1,0.2,1.7c0,1.2,0,2.3,0,3.5
		c0,1.4-0.5,2.6-0.7,3.9C71.7,65.1,71.7,65.1,71.6,65.2z"/>
	<g>
		<path fill="#EF4B74" d="M86.1,47.9h10.1v23.7c3.7,0,6.8-3,6.8-6.8V47.9h3.4c3.7,0,6.8-3,6.8-6.8H92.8
			C89.1,41.1,86.1,44.2,86.1,47.9z"/>
		<path fill="#EF4B74" d="M129,47.9h3.1h0.5c3.6-0.1,6.5-3.1,6.5-6.8H129c-1.2,0-2.3,0.1-3.4,0.4c-3.8,0.9-7.1,3.2-9.3,6.4
			c-1.6,2.4-2.5,5.3-2.5,8.5c0,3.1,0.9,6,2.5,8.5c2.7,4.1,7.4,6.8,12.7,6.8h3.3c3.7,0,6.8-3,6.8-6.8H129c-1.2,0-2.4-0.3-3.4-0.7
			c-1.9-0.8-3.5-2.4-4.4-4.4h5.2c3.7,0,6.8-3,6.8-6.8h-12C122.5,49.9,125.5,47.9,129,47.9z"/>
		<path fill="#EF4B74" d="M157.2,52.9h-5.9c-1.4,0-2.5-1.1-2.5-2.5c0-1.4,1.1-2.5,2.5-2.5h5.9c3.7,0,6.8-3,6.8-6.8h-12.7
			c-5.2,0-9.3,4.2-9.3,9.3c0,5.2,4.1,9.3,9.3,9.3h5.9c1.4,0,2.5,1.1,2.5,2.5c0,1.4-1.1,2.5-2.5,2.5H142c0,3.7,3,6.8,6.8,6.8h8.5
			c5.1,0,9.3-4.1,9.3-9.3C166.5,57.1,162.3,52.9,157.2,52.9z"/>
		<path fill="#EF4B74" d="M171.7,41.1c-3.7,0-6.8,3-6.8,6.8h10.1v23.7c3.7,0,6.8-3,6.8-6.8V47.9h3.4c3.7,0,6.8-3,6.8-6.8H171.7z"/>
	</g>
	<g>
		<path fill="#E5D4ED" d="M219.5,54.8h-13.2c-0.7,0-1.1-0.1-1.2-0.3c-0.2-0.2-0.3-0.6-0.3-1.2v-7.7c0-0.7,0.1-1.1,0.3-1.2
			c0.2-0.2,0.6-0.3,1.2-0.3h7.5c0.6,0,1,0.1,1.2,0.3c0.2,0.2,0.3,0.6,0.3,1.2v4.9h7.9V45c0-2.6-1.3-3.9-3.9-3.9h-18.6
			c-2.6,0-3.9,1.3-3.9,3.9v8.8c0,2.6,1.3,3.9,3.9,3.9H214c0.7,0,1.1,0.1,1.2,0.3c0.2,0.2,0.3,0.6,0.3,1.2v8c0,0.7-0.1,1.1-0.3,1.2
			c-0.2,0.2-0.6,0.3-1.2,0.3h-7.5c-0.7,0-1.1-0.1-1.2-0.3c-0.2-0.2-0.3-0.6-0.3-1.2v-4.9H197v5.4c0,2.6,1.3,3.9,3.9,3.9h18.6
			c2.6,0,3.9-1.3,3.9-3.9v-9.1C223.4,56.1,222.1,54.8,219.5,54.8z"/>
		<rect x="230.9" y="41.1" fill="#E5D4ED" width="8.1" height="30.4"/>
		<polygon fill="#E5D4ED" points="243.9,44 253.8,44 253.8,71.6 261.6,71.6 261.6,44 271.6,44 271.6,41.1 243.9,41.1 		"/>
		<polygon fill="#E5D4ED" points="284.2,68.7 284.2,57.4 297.4,57.4 297.4,54.5 284.2,54.5 284.2,44 299.4,44 299.4,41.1 276,41.1 
			276,71.6 300,71.6 300,68.7 		"/>
	</g>
</g>
</svg>
